<svg width="24" height="24" viewBox="0 0 24 24" fill="none" xmlns="http://www.w3.org/2000/svg">
<path d="M4.8125 10.375C6.77083 14.25 9.70833 17.1875 13.625 19.1875L16.5625 16.25C16.9375 15.8333 17.3958 15.7292 17.9375 15.9375C19.4375 16.4375 21.0208 16.6875 22.6875 16.6875C23.0208 16.6875 23.3125 16.8125 23.5625 17.0625C23.8542 17.3125 24 17.625 24 18V22.6875C24 23.0208 23.8542 23.3333 23.5625 23.625C23.3125 23.875 23.0208 24 22.6875 24C18.5625 24 14.75 23 11.25 21C7.79167 18.9583 5.04167 16.2083 3 12.75C1 9.25 0 5.4375 0 1.3125C0 0.979167 0.125 0.6875 0.375 0.4375C0.666667 0.145833 0.979167 0 1.3125 0H6C6.375 0 6.6875 0.145833 6.9375 0.4375C7.1875 0.6875 7.3125 0.979167 7.3125 1.3125C7.3125 2.97917 7.5625 4.5625 8.0625 6.0625C8.22917 6.60417 8.125 7.0625 7.75 7.4375L4.8125 10.375Z" fill="black"/>
</svg>
