<svg width="345" height="612" viewBox="0 0 345 612" fill="none" xmlns="http://www.w3.org/2000/svg">
<path d="M534 153.012L267 0L0 153.012V458.988L267 612L534 458.988V153.012ZM500.829 439.957L283.586 564.422V510.087L453.421 412.742V199.068L283.586 101.818V47.4832L500.829 171.996V439.957ZM172.759 92.0165L169.883 518.271L115.62 487.202L114.853 125.226L172.759 92.0165ZM206.074 72.9376L250.462 47.5308V564.469L202.958 537.254L206.074 72.9376ZM283.586 472.12V417.833L372.889 366.639V245.314L283.586 194.167V139.833L420.249 218.147V393.806L283.586 472.12ZM283.586 379.77V232.182L339.67 264.345V347.655L283.586 379.77ZM33.2192 171.996L81.7298 144.21L82.4488 468.171L33.2192 440.004V171.996Z" fill="#F0F0F0"/>
</svg>
