<svg width="27" height="22" viewBox="0 0 27 22" fill="none" xmlns="http://www.w3.org/2000/svg">
<path d="M24 0.3125C24.75 0.3125 25.375 0.583333 25.875 1.125C26.4167 1.625 26.6875 2.25 26.6875 3V19C26.6875 19.75 26.4167 20.3958 25.875 20.9375C25.375 21.4375 24.75 21.6875 24 21.6875H2.6875C1.9375 21.6875 1.29167 21.4375 0.75 20.9375C0.25 20.3958 0 19.75 0 19V3C0 2.25 0.25 1.625 0.75 1.125C1.29167 0.583333 1.9375 0.3125 2.6875 0.3125H24ZM24 5.6875V3L13.3125 9.6875L2.6875 3V5.6875L13.3125 12.3125L24 5.6875Z" fill="black"/>
</svg>
